HIERARCHY
ROOT hip
{
  OFFSET 0 0 0
  CHANNELS 6 Xposition Yposition Zposition Zrotation Yrotation Xrotation
  JOINT abdomen
  {
    OFFSET 0 20.6881 -0.73152
    CHANNELS 3 Zrotation Xrotation Yrotation
    JOINT chest
    {
      OFFSET 0 11.7043 -0.48768
      CHANNELS 3 Zrotation Xrotation Yrotation
      JOINT neck
      {
        OFFSET 0 22.1894 -2.19456
        CHANNELS 3 Zrotation Xrotation Yrotation
        JOINT head
        {
          OFFSET -0.24384 7.07133 1.2192
          CHANNELS 3 Zrotation Xrotation Yrotation
          JOINT leftEye
          {
            OFFSET 4.14528 8.04674 8.04672
            CHANNELS 3 Zrotation Xrotation Yrotation
            End Site
            {
              OFFSET 1 0 0
            }
          }
          JOINT rightEye
          {
            OFFSET -3.6576 8.04674 8.04672
            CHANNELS 3 Zrotation Xrotation Yrotation
            End Site
            {
              OFFSET 1 0 0
            }
          }
        }
      }
      JOINT rCollar
      {
        OFFSET -2.68224 19.2634 -4.8768
        CHANNELS 3 Zrotation Xrotation Yrotation
        JOINT rShldr
        {
          OFFSET -8.77824 -1.95073 1.46304
          CHANNELS 3 Zrotation Xrotation Yrotation
          JOINT rForeArm
          {
            OFFSET -28.1742 -1.7115 0.48768
            CHANNELS 3 Zrotation Xrotation Yrotation
            JOINT rHand
            {
              OFFSET -22.5879 0.773209 7.07136
              CHANNELS 3 Zrotation Xrotation Yrotation
              JOINT rThumb1
              {
                OFFSET -1.2192 -0.487915 3.41376
                CHANNELS 3 Zrotation Xrotation Yrotation
                JOINT rThumb2
                {
                  OFFSET -3.37035 -0.52449 3.41376
                  CHANNELS 3 Zrotation Xrotation Yrotation
                  End Site
                  {
                    OFFSET -1.78271 -1.18214 1.43049
                  }
                }
              }
              JOINT rIndex1
              {
                OFFSET -7.75947 0.938293 5.60832
                CHANNELS 3 Zrotation Xrotation Yrotation
                JOINT rIndex2
                {
                  OFFSET -2.54057 -0.884171 1.56538
                  CHANNELS 3 Zrotation Xrotation Yrotation
                  End Site
                  {
                    OFFSET -1.62519 -0.234802 1.16502
                  }
                }
              }
              JOINT rMid1
              {
                OFFSET -8.24714 1.18213 3.41376
                CHANNELS 3 Zrotation Xrotation Yrotation
                JOINT rMid2
                {
                  OFFSET -3.10165 -0.590103 1.0647
                  CHANNELS 3 Zrotation Xrotation Yrotation
                  End Site
                  {
                    OFFSET -2.48547 -0.328903 0.83742
                  }
                }
              }
              JOINT rRing1
              {
                OFFSET -8.82822 0.546677 1.51678
                CHANNELS 3 Zrotation Xrotation Yrotation
                JOINT rRing2
                {
                  OFFSET -2.60934 -0.819778 -0.0198488
                  CHANNELS 3 Zrotation Xrotation Yrotation
                  End Site
                  {
                    OFFSET -2.33842 -0.294052 0.168128
                  }
                }
              }
              JOINT rPinky1
              {
                OFFSET -8.27202 -0.0477905 -0.4584
                CHANNELS 3 Zrotation Xrotation Yrotation
                JOINT rPinky2
                {
                  OFFSET -1.82734 -0.647385 -0.700984
                  CHANNELS 3 Zrotation Xrotation Yrotation
                  End Site
                  {
                    OFFSET -1.69225 -0.51767 -0.607171
                  }
                }
              }
            }
          }
        }
      }
      JOINT lCollar
      {
        OFFSET 2.68224 19.2634 -4.8768
        CHANNELS 3 Zrotation Xrotation Yrotation
        JOINT lShldr
        {
          OFFSET 8.77824 -1.95073 1.46304
          CHANNELS 3 Zrotation Xrotation Yrotation
          JOINT lForeArm
          {
            OFFSET 28.1742 -1.7115 0.48768
            CHANNELS 3 Zrotation Xrotation Yrotation
            JOINT lHand
            {
              OFFSET 22.5879 0.773209 7.07136
              CHANNELS 3 Zrotation Xrotation Yrotation
              JOINT lThumb1
              {
                OFFSET 1.2192 -0.487915 3.41376
                CHANNELS 3 Zrotation Xrotation Yrotation
                JOINT lThumb2
                {
                  OFFSET 3.37035 -0.52449 3.41376
                  CHANNELS 3 Zrotation Xrotation Yrotation
                  End Site
                  {
                    OFFSET 1.78271 -1.18214 1.43049
                  }
                }
              }
              JOINT lIndex1
              {
                OFFSET 7.75947 0.938293 5.60832
                CHANNELS 3 Zrotation Xrotation Yrotation
                JOINT lIndex2
                {
                  OFFSET 2.54057 -0.884171 1.56538
                  CHANNELS 3 Zrotation Xrotation Yrotation
                  End Site
                  {
                    OFFSET 1.62519 -0.234802 1.16502
                  }
                }
              }
              JOINT lMid1
              {
                OFFSET 8.24714 1.18213 3.41376
                CHANNELS 3 Zrotation Xrotation Yrotation
                JOINT lMid2
                {
                  OFFSET 3.10165 -0.590103 1.0647
                  CHANNELS 3 Zrotation Xrotation Yrotation
                  End Site
                  {
                    OFFSET 2.48547 -0.328903 0.83742
                  }
                }
              }
              JOINT lRing1
              {
                OFFSET 8.82822 0.546677 1.51678
                CHANNELS 3 Zrotation Xrotation Yrotation
                JOINT lRing2
                {
                  OFFSET 2.60934 -0.819778 -0.0198488
                  CHANNELS 3 Zrotation Xrotation Yrotation
                  End Site
                  {
                    OFFSET 2.33842 -0.294052 0.168128
                  }
                }
              }
              JOINT lPinky1
              {
                OFFSET 8.27202 -0.0477905 -0.4584
                CHANNELS 3 Zrotation Xrotation Yrotation
                JOINT lPinky2
                {
                  OFFSET 1.82734 -0.647385 -0.700984
                  CHANNELS 3 Zrotation Xrotation Yrotation
                  End Site
                  {
                    OFFSET 1.69225 -0.51767 -0.607171
                  }
                }
              }
            }
          }
        }
      }
    }
  }
  JOINT rButtock
  {
    OFFSET -8.77824 4.35084 1.2192
    CHANNELS 3 Zrotation Xrotation Yrotation
    JOINT rThigh
    {
      OFFSET 0 -1.70687 -2.19456
      CHANNELS 3 Zrotation Xrotation Yrotation
      JOINT rShin
      {
        OFFSET 0 -36.8199 0.73152
        CHANNELS 3 Zrotation Xrotation Yrotation
        JOINT rFoot
        {
          OFFSET 0.73152 -45.1104 -5.12064
          CHANNELS 3 Zrotation Xrotation Yrotation
          End Site
          {
            OFFSET -1.1221 -3.69964 12.103
          }
        }
      }
    }
  }
  JOINT lButtock
  {
    OFFSET 8.77824 4.35084 1.2192
    CHANNELS 3 Zrotation Xrotation Yrotation
    JOINT lThigh
    {
      OFFSET 0 -1.70687 -2.19456
      CHANNELS 3 Zrotation Xrotation Yrotation
      JOINT lShin
      {
        OFFSET 0 -36.8199 0.73152
        CHANNELS 3 Zrotation Xrotation Yrotation
        JOINT lFoot
        {
          OFFSET -0.73152 -45.1104 -5.12064
          CHANNELS 3 Zrotation Xrotation Yrotation
          End Site
          {
            OFFSET 1.1221 -3.69964 12.103
          }
        }
      }
    }
  }
}
MOTION
Frames:	5
Frame Time:	0.03333
0.0 0.0 0.0 0.0 0.0 0.0 0.0 0.0 0.0 0.0 0.0 0.0 0.0 0.0 0.0 0.0 0.0 0.0 0.0 0.0 0.0 0.0 0.0 0.0 0.0 0.0 0.0 0.0 0.0 0.0 0.0 0.0 0.0 0.0 0.0 0.0 0.0 0.0 0.0 0.0 0.0 0.0 0.0 0.0 0.0 0.0 0.0 0.0 0.0 0.0 0.0 0.0 0.0 0.0 0.0 0.0 0.0 0.0 0.0 0.0 0.0 0.0 0.0 0.0 0.0 0.0 0.0 0.0 0.0 0.0 0.0 0.0 0.0 0.0 0.0 0.0 0.0 0.0 0.0 0.0 0.0 0.0 0.0 0.0 0.0 0.0 0.0 0.0 0.0 0.0 0.0 0.0 0.0 0.0 0.0 0.0 0.0 0.0 0.0 0.0 0.0 0.0 0.0 0.0 0.0 0.0 0.0 0.0 0.0 0.0 0.0 0.0 0.0 0.0 0.0 0.0 0.0 0.0 0.0 0.0 0.0 0.0 0.0 0.0 0.0 0.0 0.0 0.0 0.0 0.0 0.0 0.0
0.09129999999999999 12.5007 -0.0375 -177.477558 80.944918 -177.839712 -2.041636 -1.252502 180.0 2.203333 -7.964107 -141.702761 5.110006 15.585665 112.446754 14.953461 -44.456452 103.365468 -24.795587 -4.810744 21.63656 -24.142176 -4.790006 22.132208 112.767572 -24.363717 -170.490643 -165.415546 -1.054378 -8.499419 1.313736 7.318488 175.750671 175.351418 -14.974214 11.633484 50.796737 80.356881 -96.25783 -129.332745 -0.475089 84.994493 5.236326 65.571481 -39.683237 -0.80326 16.749579 -4.513641 -174.584547 31.625991 173.984133 -174.521143 -42.399234 144.514971 4.248823 74.296533 -4.966847 -2.483539 -62.086024 -21.418553 -92.441413 -54.446797 -71.939276 1.162091 -2.509106 -3.96392 85.014038 -25.244172 -165.189536 169.273579 -0.942447 -171.550681 0.732094 42.261078 -152.169763 -9.667589 -26.394948 154.366135 7.86825 7.09892 22.629767 138.482162 3.133854 -105.077707 84.017189 59.605172 -51.238531 -25.934855 -7.450116 7.732867 10.579286 -5.849645 7.278359 87.20746 68.401609 -79.073246 86.898306 62.233981 -86.288189 152.586368 0.010224 -177.619174 21.268507 -50.223557 -9.819218 -14.781057 62.081128 -13.492481 -62.871307 8.554893 -78.604062 37.323837 63.507615 -33.989479 -14.402125 -7.972621 -87.814533 -68.309279 6.605419 119.124328 7.450755 62.588699 -180.0 23.163138 62.77556 -20.620764 -4.29027 -12.635963 -42.684369 179.919505 25.258001 61.096052
-0.6694 23.3962 -0.1196 -14.825336 -76.070037 2.040991 -8.188091 29.558568 -180.0 39.748438 34.405638 175.210906 12.977058 51.474838 -29.528368 8.123872 8.249004 -39.474031 -33.382551 -5.187471 17.182201 -28.24043 -3.610617 14.283352 -120.646317 -18.059018 175.45061 136.607976 -15.388012 -155.71988 33.136638 -3.822694 146.9787 5.483991 29.361421 -14.045283 -175.896497 -35.280882 107.716326 18.137741 -52.563597 19.371323 27.504789 -49.786645 -10.413146 -14.805155 5.026489 -142.858151 -166.965234 64.208313 -79.276704 74.445156 13.39157 -126.80458 128.270319 25.324005 -35.660319 -149.250826 30.110409 159.804717 165.723205 56.741653 -14.863029 -11.172822 -46.611685 -13.305619 16.738147 -3.859545 -11.684796 172.839652 66.499139 132.72503 135.897237 10.350639 26.900647 -145.585704 -55.000841 -55.476288 5.709534 8.195011 25.603225 -9.635628 -61.556546 67.285475 167.479096 76.351583 -159.837734 4.414095 29.468741 -11.42437 -105.066877 67.385675 99.914176 66.913887 58.035436 -24.346241 -37.147305 57.564174 26.536992 6.962599 -3.284805 -25.78426 143.130026 21.430118 119.195888 138.414515 4.925863 120.333743 -7.736489 13.693126 11.607581 14.498182 -60.199919 12.789841 34.526893 51.516642 13.875406 -125.981564 49.804756 54.671217 1.180541 4.254231 -15.524896 -34.02207 -13.451361 -82.744907 -56.993048 13.795834 104.415077 -171.387456 14.765056 -62.995388
-1.541 25.009999999999998 -0.1325 -10.328089 -69.658336 -1.153767 -13.310925 23.492654 4.872063 -40.888979 -62.368897 -27.876756 -144.796019 18.426047 98.481688 48.144427 35.717708 38.373667 -15.08282 6.387462 -45.70897 5.288838 -1.727451 -36.154897 56.807317 57.156258 -19.816886 -80.547923 32.323743 139.562782 21.069993 -1.725122 -167.738671 150.444316 6.627254 152.378476 -160.756506 -22.906296 91.781732 154.321791 -34.620856 175.783656 58.217217 56.381399 20.159809 97.186915 -57.528487 24.403993 -51.193259 -74.677761 166.232974 3.9176 10.638039 78.89999 98.63624 -0.167001 -0.469481 -15.68131 -11.223631 -17.793344 30.511303 63.855746 99.19165 -162.299356 50.712989 -154.191686 -2.05516 3.08406 21.041318 -99.954405 62.101019 78.19781 145.752769 5.376499 -0.774877 -170.486068 -26.875385 -75.847053 11.544506 -23.523471 25.310063 42.868102 -28.864388 108.884919 4.639281 62.960888 25.063814 -30.431971 15.323988 -4.807619 -9.303086 44.70106 28.047123 144.627032 9.734829 -124.773653 73.577085 -32.039704 101.766403 90.38475 -28.635539 165.808457 76.052066 -40.442676 87.285623 63.422734 -55.39202 80.4265 -152.453216 63.706245 -30.190912 -173.697989 25.878369 165.800661 17.388181 -50.801492 111.164085 95.4199 41.893055 -24.671842 -147.720399 75.870494 -0.0 97.153017 30.196193 74.091652 31.775822 53.654702 74.310809 -108.300149 23.291066 -14.844519
-2.3636 32.644 -0.5234 -0.417118 -73.249121 -3.898029 -6.812954 12.75533 -151.581454 46.058868 24.712659 157.995784 -149.087633 37.357746 91.989063 32.250179 50.671677 80.918516 -2.450268 1.70398 -69.627272 24.945072 -13.858817 -57.573298 -68.448812 -37.23386 -156.261504 -95.216938 -60.462716 -86.850568 -74.888194 61.861662 -91.824423 165.348912 -7.504365 128.612879 28.886122 11.610643 -34.122752 -152.120357 80.752849 156.478025 -70.645047 41.446157 -170.304673 11.833166 -6.915062 28.641091 -27.908039 -15.309399 -147.29562 -162.417753 -22.135735 36.915844 -72.506364 27.173234 -113.431952 13.209593 29.974081 5.704658 58.282437 -76.909565 -74.479946 -175.41228 -74.811943 -98.44354 142.387089 12.668893 -165.211208 129.653176 34.59793 -121.323218 37.075544 12.190714 -165.209018 -177.631986 -69.099417 -100.180805 12.370284 10.102517 27.568693 78.981419 -44.820272 141.393953 15.560729 -21.358718 75.575268 171.312882 -13.211605 -103.083893 165.631903 -43.471896 178.605946 119.91132 45.888744 -49.227276 83.039232 -27.456411 93.721211 -40.96224 -4.666039 18.921079 3.175054 25.280081 10.110887 -3.13039 -36.693413 13.622037 -144.967043 67.94158 -37.10514 -169.146229 26.252631 -94.254801 -56.216044 6.75305 82.870218 -36.349522 -37.83178 -8.730643 -31.398244 20.516873 -39.260732 15.912577 -19.198475 -180.0 44.090073 -55.109904 68.582475 -50.438521 -8.462833 -128.810934
